<svg width="24" height="33" viewBox="0 0 24 33" fill="none" xmlns="http://www.w3.org/2000/svg">
<path d="M3 0C1.34375 0 0 1.38574 0 3.09375V29.9062C0 31.6143 1.34375 33 3 33H9V27.8438C9 26.1357 10.3438 24.75 12 24.75C13.6562 24.75 15 26.1357 15 27.8438V33H21C22.6562 33 24 31.6143 24 29.9062V3.09375C24 1.38574 22.6562 0 21 0H3ZM4 15.4688C4 14.9016 4.45 14.4375 5 14.4375H7C7.55 14.4375 8 14.9016 8 15.4688V17.5312C8 18.0984 7.55 18.5625 7 18.5625H5C4.45 18.5625 4 18.0984 4 17.5312V15.4688ZM11 14.4375H13C13.55 14.4375 14 14.9016 14 15.4688V17.5312C14 18.0984 13.55 18.5625 13 18.5625H11C10.45 18.5625 10 18.0984 10 17.5312V15.4688C10 14.9016 10.45 14.4375 11 14.4375ZM16 15.4688C16 14.9016 16.45 14.4375 17 14.4375H19C19.55 14.4375 20 14.9016 20 15.4688V17.5312C20 18.0984 19.55 18.5625 19 18.5625H17C16.45 18.5625 16 18.0984 16 17.5312V15.4688ZM5 6.1875H7C7.55 6.1875 8 6.65156 8 7.21875V9.28125C8 9.84844 7.55 10.3125 7 10.3125H5C4.45 10.3125 4 9.84844 4 9.28125V7.21875C4 6.65156 4.45 6.1875 5 6.1875ZM10 7.21875C10 6.65156 10.45 6.1875 11 6.1875H13C13.55 6.1875 14 6.65156 14 7.21875V9.28125C14 9.84844 13.55 10.3125 13 10.3125H11C10.45 10.3125 10 9.84844 10 9.28125V7.21875ZM17 6.1875H19C19.55 6.1875 20 6.65156 20 7.21875V9.28125C20 9.84844 19.55 10.3125 19 10.3125H17C16.45 10.3125 16 9.84844 16 9.28125V7.21875C16 6.65156 16.45 6.1875 17 6.1875Z" fill="#4F46E5"/>
</svg>
